<!-- This is a placeholder SVG for certificate images -->
<svg width="100" height="100" viewBox="0 0 100 100" fill="none" xmlns="http://www.w3.org/2000/svg">
  <rect width="100" height="100" rx="20" fill="#00D4FF"/>
  <path d="M50 20C35.8 20 24 31.8 24 46C24 60.2 35.8 72 50 72C64.2 72 76 60.2 76 46C76 31.8 64.2 20 50 20ZM50 26C60.5 26 69 34.5 69 45C69 55.5 60.5 64 50 64C39.5 64 31 55.5 31 45C31 34.5 39.5 26 50 26Z" fill="white"/>
  <path d="M45 40L48 46L55 39" stroke="white" stroke-width="2" stroke-linecap="round" stroke-linejoin="round"/>
  <rect x="30" y="75" width="40" height="8" rx="4" fill="white"/>
</svg>
